<svg width="95" height="35" viewBox="0 0 95 35" fill="none" xmlns="http://www.w3.org/2000/svg">
<path d="M0.112376 27.0452V6.96732H5.73118V27.0452H0.112376ZM0 4.49505V0H5.8061V4.49505H0Z" fill="white"/>
<path d="M9.68249 32.664V28.4686H12.3421C12.9913 28.4686 13.4658 28.3687 13.7655 28.169C14.0901 27.9941 14.3399 27.6695 14.5147 27.195L14.9267 26.0338H13.3909L6.34867 6.96732H12.0799L16.6873 20.7896L20.995 6.96732H26.7262L19.0097 28.9556C18.5602 30.2791 17.9109 31.2281 17.0619 31.8025C16.2128 32.3768 15.0266 32.664 13.5033 32.664H9.68249Z" fill="white"/>
<path d="M35.7769 27.4947C33.7291 27.4947 31.9436 27.0702 30.4203 26.2211C28.897 25.3471 27.7108 24.1234 26.8617 22.5501C26.0126 20.9769 25.5881 19.1289 25.5881 17.0063C25.5881 14.8836 26.0126 13.0481 26.8617 11.4998C27.7108 9.92656 28.897 8.70291 30.4203 7.82887C31.9436 6.95484 33.7291 6.51782 35.7769 6.51782C37.8246 6.51782 39.6102 6.95484 41.1335 7.82887C42.6568 8.70291 43.843 9.92656 44.6921 11.4998C45.5411 13.0481 45.9656 14.8836 45.9656 17.0063C45.9656 19.1289 45.5411 20.9769 44.6921 22.5501C43.843 24.1234 42.6568 25.3471 41.1335 26.2211C39.6102 27.0702 37.8246 27.4947 35.7769 27.4947ZM35.7769 23.1869C37.1753 23.1869 38.2616 22.65 39.0358 21.5762C39.8099 20.4774 40.197 18.9541 40.197 17.0063C40.197 15.0584 39.8099 13.5476 39.0358 12.4738C38.2616 11.375 37.1753 10.8256 35.7769 10.8256C34.3784 10.8256 33.2921 11.375 32.518 12.4738C31.7438 13.5476 31.3567 15.0584 31.3567 17.0063C31.3567 18.9541 31.7438 20.4774 32.518 21.5762C33.2921 22.65 34.3784 23.1869 35.7769 23.1869Z" fill="white"/>
<path d="M54.3713 27.4947C52.6732 27.4947 51.1998 27.0702 49.9512 26.2211C48.7275 25.3471 47.7786 24.1359 47.1043 22.5876C46.4551 21.0143 46.1304 19.1539 46.1304 17.0063C46.1304 14.8586 46.4675 13.0107 47.1418 11.4624C47.816 9.8891 48.765 8.67794 49.9887 7.82887C51.2373 6.95484 52.6982 6.51782 54.3713 6.51782C55.7948 6.51782 57.0184 6.81749 58.0423 7.41683C59.0911 7.99119 59.8778 8.79031 60.4022 9.81419V0.449506H66.021V27.0452H60.6644L60.552 24.086C60.0026 25.1598 59.1785 25.9964 58.0797 26.5957C57.0059 27.195 55.7698 27.4947 54.3713 27.4947ZM56.2068 23.1869C57.1058 23.1869 57.8675 22.9497 58.4918 22.4752C59.1161 22.0008 59.5906 21.314 59.9152 20.415C60.2399 19.491 60.4022 18.3548 60.4022 17.0063C60.4022 15.6328 60.2399 14.4965 59.9152 13.5975C59.5906 12.6735 59.1161 11.9868 58.4918 11.5373C57.8675 11.0628 57.1058 10.8256 56.2068 10.8256C54.8833 10.8256 53.8344 11.3875 53.0603 12.5112C52.2861 13.61 51.899 15.1084 51.899 17.0063C51.899 18.8792 52.2861 20.3775 53.0603 21.5013C53.8594 22.6251 54.9082 23.1869 56.2068 23.1869Z" fill="white"/>
<path d="M77.4468 27.4947C75.399 27.4947 73.6135 27.0702 72.0902 26.2211C70.5669 25.3471 69.3807 24.1234 68.5316 22.5501C67.6825 20.9769 67.258 19.1289 67.258 17.0063C67.258 14.8836 67.6825 13.0481 68.5316 11.4998C69.3807 9.92656 70.5669 8.70291 72.0902 7.82887C73.6135 6.95484 75.399 6.51782 77.4468 6.51782C79.4945 6.51782 81.28 6.95484 82.8034 7.82887C84.3267 8.70291 85.5129 9.92656 86.3619 11.4998C87.211 13.0481 87.6355 14.8836 87.6355 17.0063C87.6355 19.1289 87.211 20.9769 86.3619 22.5501C85.5129 24.1234 84.3267 25.3471 82.8034 26.2211C81.28 27.0702 79.4945 27.4947 77.4468 27.4947ZM77.4468 23.1869C78.8452 23.1869 79.9315 22.65 80.7057 21.5762C81.4798 20.4774 81.8669 18.9541 81.8669 17.0063C81.8669 15.0584 81.4798 13.5476 80.7057 12.4738C79.9315 11.375 78.8452 10.8256 77.4468 10.8256C76.0483 10.8256 74.962 11.375 74.1879 12.4738C73.4137 13.5476 73.0266 15.0584 73.0266 17.0063C73.0266 18.9541 73.4137 20.4774 74.1879 21.5762C74.962 22.65 76.0483 23.1869 77.4468 23.1869Z" fill="white"/>
<path d="M91.0317 27.0452C89.4491 27.0452 88.1661 25.7622 88.1661 24.1796C88.1661 22.597 89.4491 21.314 91.0317 21.314H91.4063C92.9889 21.314 94.2719 22.597 94.2719 24.1796C94.2719 25.7622 92.9889 27.0452 91.4063 27.0452H91.0317Z" fill="white"/>
<path d="M26.2798 34.1965V29.7639H27.8093C28.5294 29.7639 29.0829 29.9574 29.47 30.3445C29.8571 30.7274 30.0506 31.2747 30.0506 31.9864C30.0506 32.694 29.8592 33.2392 29.4763 33.6221C29.0975 34.0051 28.5544 34.1965 27.8468 34.1965H26.2798ZM27.2287 33.3974H27.8093C28.238 33.3974 28.5544 33.2829 28.7583 33.054C28.9664 32.8209 29.0705 32.463 29.0705 31.9802C29.0705 31.4974 28.9664 31.1415 28.7583 30.9126C28.5544 30.6795 28.238 30.563 27.8093 30.563H27.2287V33.3974Z" fill="white"/>
<path d="M38.1673 34.1965V29.7639H41.2514V30.563H39.1163V31.5806H41.1765V32.3673H39.1163V33.3974H41.3014V34.1965H38.1673Z" fill="white"/>
<path d="M51.297 34.2964C50.9141 34.2964 50.5853 34.2319 50.3106 34.1029C50.0359 33.9738 49.8216 33.7928 49.6676 33.5597C49.5136 33.3266 49.4262 33.0519 49.4054 32.7356L50.3606 32.6919C50.3855 32.8667 50.4355 33.0166 50.5104 33.1414C50.5895 33.2621 50.6935 33.3537 50.8226 33.4161C50.9557 33.4785 51.1181 33.5098 51.3095 33.5098C51.4677 33.5098 51.6009 33.491 51.7091 33.4536C51.8215 33.4161 51.9068 33.3599 51.965 33.285C52.0233 33.2059 52.0525 33.1102 52.0525 32.9978C52.0525 32.8938 52.0275 32.8043 51.9775 32.7294C51.9276 32.6503 51.8319 32.5795 51.6904 32.5171C51.5488 32.4505 51.3407 32.386 51.066 32.3236C50.6873 32.2362 50.3814 32.1384 50.1483 32.0301C49.9194 31.9219 49.7529 31.7867 49.6489 31.6243C49.5448 31.4579 49.4928 31.2498 49.4928 31C49.4928 30.7337 49.5573 30.5006 49.6863 30.3008C49.8195 30.101 50.011 29.9449 50.2607 29.8326C50.5104 29.7202 50.808 29.664 51.1534 29.664C51.5197 29.664 51.8298 29.7285 52.0837 29.8575C52.3376 29.9866 52.5353 30.1635 52.6768 30.3882C52.8224 30.613 52.9098 30.871 52.939 31.1623L51.99 31.2123C51.9775 31.0583 51.9359 30.9251 51.8652 30.8127C51.7944 30.6962 51.6987 30.6067 51.578 30.5443C51.4573 30.4818 51.3116 30.4506 51.141 30.4506C50.9245 30.4506 50.7539 30.4985 50.629 30.5942C50.5083 30.69 50.448 30.8148 50.448 30.9688C50.448 31.077 50.475 31.1686 50.5291 31.2435C50.5874 31.3143 50.681 31.3767 50.8101 31.4308C50.9433 31.4849 51.1306 31.5369 51.372 31.5869C51.784 31.6701 52.1086 31.7763 52.3459 31.9053C52.5873 32.0301 52.7579 32.18 52.8578 32.3548C52.9577 32.5296 53.0077 32.7294 53.0077 32.9541C53.0077 33.2288 52.9369 33.4681 52.7954 33.6721C52.658 33.8719 52.4603 34.0259 52.2023 34.1341C51.9484 34.2423 51.6467 34.2964 51.297 34.2964Z" fill="white"/>
<path d="M61.1864 34.1965V29.7639H62.1353V34.1965H61.1864Z" fill="white"/>
<path d="M72.3003 34.2964C71.8716 34.2964 71.5053 34.1986 71.2015 34.003C70.8976 33.8074 70.6625 33.5368 70.496 33.1914C70.3337 32.8417 70.2525 32.4401 70.2525 31.9864C70.2525 31.5411 70.3358 31.1436 70.5022 30.794C70.6687 30.4444 70.908 30.1697 71.2202 29.9699C71.5365 29.766 71.9153 29.664 72.3564 29.664C72.7394 29.664 73.0619 29.7285 73.3241 29.8575C73.5905 29.9824 73.8028 30.1614 73.9609 30.3944C74.1191 30.6275 74.2294 30.9022 74.2918 31.2185L73.3116 31.2622C73.2659 31.0167 73.1681 30.8231 73.0182 30.6816C72.8725 30.536 72.654 30.4631 72.3627 30.4631C72.1088 30.4631 71.8965 30.5297 71.7259 30.6629C71.5594 30.7961 71.4345 30.9771 71.3513 31.2061C71.2722 31.435 71.2327 31.6951 71.2327 31.9864C71.2327 32.282 71.2722 32.5442 71.3513 32.7731C71.4345 32.9978 71.5594 33.1747 71.7259 33.3037C71.8965 33.4328 72.115 33.4973 72.3814 33.4973C72.577 33.4973 72.7456 33.4577 72.8871 33.3787C73.0328 33.2996 73.1452 33.1914 73.2242 33.054C73.3075 32.9167 73.3574 32.7606 73.3741 32.5858H72.3627V31.8928H74.3043V34.1965H73.7174L73.6675 33.2476L73.7799 33.2975C73.7383 33.4931 73.6467 33.6658 73.5052 33.8157C73.3637 33.9655 73.1889 34.0841 72.9808 34.1715C72.7768 34.2548 72.55 34.2964 72.3003 34.2964Z" fill="white"/>
<path d="M82.5532 34.1965V29.7639H83.6021L85.3626 32.823V29.7639H86.3116V34.1965H85.2502L83.5022 31.2435V34.1965H82.5532Z" fill="white"/>
</svg>
